<svg width="64" height="64" viewBox="0 0 64 64" fill="none" xmlns="http://www.w3.org/2000/svg">
<path d="M4 0.5H60C61.933 0.5 63.5 2.067 63.5 4V60C63.5 61.933 61.933 63.5 60 63.5H4C2.067 63.5 0.5 61.933 0.5 60V4C0.5 2.067 2.067 0.5 4 0.5Z" fill="white"/>
<path d="M4 0.5H60C61.933 0.5 63.5 2.067 63.5 4V60C63.5 61.933 61.933 63.5 60 63.5H4C2.067 63.5 0.5 61.933 0.5 60V4C0.5 2.067 2.067 0.5 4 0.5Z" stroke="#EDEDED"/>
<path d="M27.5 25H33.5V28.1111H23V35.8889H20V32.7778C20 32.2443 20.051 31.7247 20.15 31.2222C20.2566 30.6808 20.4154 30.1598 20.624 29.6667C20.8581 29.1113 21.152 28.5902 21.5 28.1111C21.926 27.5217 22.4316 26.9973 23 26.5556C23.462 26.1961 23.9645 25.8899 24.5 25.6471C24.977 25.4308 25.4779 25.2661 26 25.1556C26.4846 25.0529 26.987 25 27.5 25Z" fill="#0C0C0E"/>
<path fill-rule="evenodd" clip-rule="evenodd" d="M41 28.1111H44V31.2222C44 31.7542 43.949 32.2753 43.85 32.7778C43.7434 33.3192 43.5846 33.8402 43.3745 34.3333C43.1419 34.8887 42.8466 35.4098 42.5 35.8889C42.2516 36.2328 41.9759 36.5546 41.6765 36.8505C41.4626 37.0619 41.2367 37.2603 41 37.4444C40.5395 37.8039 40.0355 38.1101 39.5 38.3513C39.0245 38.5692 38.5221 38.7339 38 38.8444C37.5154 38.9471 37.013 39 36.5 39H30.5V35.8904L27.5 39H23V35.8889H26L33.5 28.1111L36.5 25H41V28.1111ZM41 28.1111H38L30.5 35.8889H41V28.1111Z" fill="#0C0C0E"/>
</svg>
